<svg width="24" height="24" viewBox="0 0 24 24" fill="none" xmlns="http://www.w3.org/2000/svg">
<path fill-rule="evenodd" clip-rule="evenodd" d="M5.02326 12C5.02326 11.2205 5.15553 10.4732 5.39163 9.77232L1.25916 6.68396C0.453767 8.28432 0 10.0876 0 12C0 13.9107 0.453209 15.7129 1.25749 17.3121L5.38772 14.2178C5.15386 13.5201 5.02326 12.7756 5.02326 12Z" fill="#FBBC05"/>
<path fill-rule="evenodd" clip-rule="evenodd" d="M12.2777 4.90909C14.008 4.90909 15.5707 5.50909 16.7987 6.49091L20.3707 3C18.194 1.14545 15.4033 0 12.2777 0C7.42525 0 3.25484 2.71582 1.25781 6.684L5.39028 9.77236C6.34246 6.94364 9.0567 4.90909 12.2777 4.90909Z" fill="#EB4335"/>
<path fill-rule="evenodd" clip-rule="evenodd" d="M12.2777 19.0909C9.0567 19.0909 6.34246 17.0564 5.39028 14.2277L1.25781 17.3155C3.25484 21.2842 7.42525 24 12.2777 24C15.2727 24 18.132 22.9593 20.2781 21.0093L16.3555 18.0415C15.2487 18.7238 13.855 19.0909 12.2777 19.0909Z" fill="#34A853"/>
<path fill-rule="evenodd" clip-rule="evenodd" d="M23.9983 11.9999C23.9983 11.2908 23.8866 10.5272 23.7192 9.81812H12.2773V14.4545H18.8634C18.5341 16.0352 17.6377 17.2505 16.3551 18.0414L20.2777 21.0092C22.532 18.9616 23.9983 15.9114 23.9983 11.9999Z" fill="#4285F4"/>
</svg>
