<?xml version="1.0" encoding="UTF-8"?>
<svg version="1.1" xmlns="http://www.w3.org/2000/svg" width="111" height="95">
<path d="M0 0 C9.57380545 8.08993694 15.21678228 17.45362521 16.43359375 30.02734375 C17.08553939 44.17258846 14.57728907 55.28104114 5.24609375 66.27734375 C-2.67989309 74.6081174 -13.62309294 80.73965675 -25.359375 81.1171875 C-27.81640625 80.90234375 -27.81640625 80.90234375 -31.56640625 80.02734375 C-31.89640625 79.36734375 -32.22640625 78.70734375 -32.56640625 78.02734375 C-32.00767822 77.94282959 -31.4489502 77.85831543 -30.87329102 77.77124023 C-16.3099526 75.47603766 -8.1644296 73.00069212 1.24609375 61.21484375 C8.93612175 50.39780611 11.70981715 39.69043759 9.87109375 26.40234375 C7.64212195 16.20851272 1.94618029 7.47437113 -6.66015625 1.59765625 C-16.12150653 -4.03251346 -25.86141138 -6.56875876 -36.734375 -4.31640625 C-48.00126804 -1.25202268 -56.31770591 4.0995021 -62.56640625 14.02734375 C-63.06914063 14.74019531 -63.571875 15.45304687 -64.08984375 16.1875 C-66.12156593 20.09507149 -66.8828211 24.04542788 -67.75390625 28.33984375 C-67.93115234 29.17580078 -68.10839844 30.01175781 -68.29101562 30.87304688 C-68.72438248 32.92275498 -69.14652557 34.97483057 -69.56640625 37.02734375 C-70.22640625 36.69734375 -70.88640625 36.36734375 -71.56640625 36.02734375 C-72.00765539 22.12799592 -68.54733157 12.55258127 -58.99609375 2.359375 C-42.39551567 -13.57397727 -18.03099048 -13.85943713 0 0 Z " fill="#0E0E0E" transform="translate(85.56640625,13.97265625)"/>
<path d="M0 0 C2 1.9375 2 1.9375 2.5 5.4375 C2 8.9375 2 8.9375 0.75 10.875 C-1 11.9375 -1 11.9375 -5 11.9375 C-4.67 10.9475 -4.34 9.9575 -4 8.9375 C-3.34 8.6075 -2.68 8.2775 -2 7.9375 C-2.495 5.4625 -2.495 5.4625 -3 2.9375 C-13.03817748 2.28283625 -22.96348612 5.95081462 -30.70703125 12.34765625 C-33.22318513 14.94698877 -33.98330324 16.71209379 -34.25 20.3125 C-32.5399853 25.27154264 -29.62398885 28.24151137 -26 31.9375 C-25.29875 32.783125 -24.5975 33.62875 -23.875 34.5 C-22.1233058 36.18558063 -22.1233058 36.18558063 -19.984375 35.71875 C-14.84560656 34.37352266 -9.81921518 32.67689342 -4.7734375 31.02148438 C-3.9484375 30.75529297 -3.1234375 30.48910156 -2.2734375 30.21484375 C-1.52497559 29.96984131 -0.77651367 29.72483887 -0.00537109 29.47241211 C2 28.9375 2 28.9375 5 28.9375 C5 29.9275 5 30.9175 5 31.9375 C4.40985107 32.10878418 3.81970215 32.28006836 3.21166992 32.45654297 C0.5353652 33.23655031 -2.13855898 34.02442965 -4.8125 34.8125 C-5.74126953 35.08191406 -6.67003906 35.35132813 -7.62695312 35.62890625 C-8.9659668 36.02529297 -8.9659668 36.02529297 -10.33203125 36.4296875 C-11.15421143 36.67058105 -11.9763916 36.91147461 -12.82348633 37.15966797 C-15.24535136 37.92604733 -15.24535136 37.92604733 -18 39.9375 C-17.62746094 40.41058594 -17.25492188 40.88367187 -16.87109375 41.37109375 C-14.16622665 45.15201152 -12.55285914 47.94967226 -12.875 52.6875 C-13.4746704 56.03181567 -13.93586919 56.86999389 -16.375 59.4375 C-21.74707595 62.50725769 -26.948654 62.5504038 -33 61.9375 C-36.625 60.3125 -36.625 60.3125 -39 57.9375 C-40.23888667 54.51234274 -40.35302624 52.82006561 -39 49.4375 C-35.73854826 45.36068533 -31.79024586 42.22280472 -27.5625 39.1875 C-27.046875 38.775 -26.53125 38.3625 -26 37.9375 C-26 37.2775 -26 36.6175 -26 35.9375 C-26.58394531 35.68871094 -27.16789062 35.43992188 -27.76953125 35.18359375 C-30.31316284 33.76254563 -31.79407698 32.20557085 -33.6875 30 C-34.28949219 29.31035156 -34.89148437 28.62070312 -35.51171875 27.91015625 C-38.46385244 23.99722314 -38.60283051 19.66117189 -38 14.9375 C-35.23391283 8.65093826 -29.98300104 5.78883651 -24 2.9375 C-16.07901636 -0.13603138 -8.31346884 -2.94435355 0 0 Z M-28.9375 44.1875 C-29.81277344 44.79078125 -30.68804687 45.3940625 -31.58984375 46.015625 C-33.88536919 47.84609262 -35.44976388 49.45609895 -37 51.9375 C-37.1576585 54.05792756 -37.1576585 54.05792756 -36 55.9375 C-33.64033088 58.1449324 -31.84677995 58.88883449 -28.62109375 59.07421875 C-24.14901026 58.84095061 -21.55728091 58.31994769 -17.8125 55.75 C-15.75826066 53.08275041 -15.75826066 53.08275041 -15.875 50 C-17.32044366 46.06518114 -19.0720102 43.93690419 -22 40.9375 C-24.98564793 40.9375 -26.51456597 42.49393671 -28.9375 44.1875 Z " fill="#0D0D0D" transform="translate(75,19.0625)"/>
<path d="M0 0 C4.02627499 1.34209166 4.75169153 3.48701801 7 7 C7.5775 7.5775 8.155 8.155 8.75 8.75 C10 10 10 10 10 12 C13.82517513 14.39073445 17.59665524 14.55966552 22 15 C22.33 15.99 22.66 16.98 23 18 C25.53059243 18.95652207 25.53059243 18.95652207 28.5 19.5625 C30.3474682 19.98389416 32.18610799 20.45181428 34 21 C34.495 21.99 34.495 21.99 35 23 C28.41417213 24.71804205 23.94899745 23.11436544 18 20 C10.5600341 15.25604962 4.84652051 9.33901678 0 2 C0 1.34 0 0.68 0 0 Z " fill="#0D0D0D" transform="translate(18,69)"/>
</svg>
